<svg width="30" height="30" viewBox="0 0 30 30" fill="none" xmlns="http://www.w3.org/2000/svg">
<g clip-path="url(#clip0_103_9)">
<g clip-path="url(#clip1_103_9)">
<path d="M13.5 6.34999C13.5 5.96999 13.5 5.60999 13.5 5.23999C13.5 4.97999 13.68 4.82999 13.89 4.89999C14.06 4.94999 14.12 5.07999 14.11 5.24999C14.11 5.60999 14.11 5.96999 14.11 6.36999C14.37 6.36999 14.62 6.36999 14.87 6.36999C16.07 6.38999 16.98 7.30999 16.98 8.50999C16.98 9.65999 16.98 10.81 16.98 11.96C16.98 13.73 16.98 15.5 16.98 17.26C16.98 17.29 16.98 17.32 16.98 17.35C16.98 17.78 16.98 17.78 17.4 17.9C18.08 18.08 18.75 18.27 19.43 18.45C19.64 18.51 19.86 18.55 20.07 18.6C20.17 18.62 20.26 18.66 20.35 18.7C20.94 18.96 21.1 19.55 20.68 20.03C20.29 20.48 19.84 20.89 19.42 21.32C19.23 21.52 19.03 21.7 18.82 21.91C18.86 21.96 18.89 22 18.92 22.03C20.05 23.16 21.18 24.29 22.32 25.41C22.66 25.75 22.9 26.11 22.88 26.61C22.87 26.95 22.75 27.26 22.5 27.5C22.07 27.94 21.63 28.37 21.2 28.8C20.65 29.33 19.78 29.31 19.23 28.77C18.08 27.62 16.92 26.47 15.76 25.33C15.7 25.27 15.64 25.22 15.56 25.15C15.21 25.51 14.86 25.86 14.51 26.2C14.24 26.47 13.98 26.75 13.69 27C13.24 27.38 12.63 27.25 12.35 26.73C12.3 26.64 12.27 26.55 12.24 26.45C11.91 25.24 11.58 24.04 11.27 22.83C11.22 22.64 11.15 22.57 10.95 22.57C8.78996 22.57 6.63996 22.57 4.47996 22.57C3.91996 22.57 3.35996 22.57 2.79996 22.57C1.61996 22.57 0.669961 21.68 0.659961 20.5C0.639961 18.68 0.649961 16.86 0.649961 15.05C0.649961 13.23 0.649961 11.4 0.649961 9.57999C0.649961 9.23999 0.649961 8.88999 0.649961 8.54999C0.649961 7.14999 1.80996 6.33999 2.85996 6.35999C4.50996 6.38999 6.15996 6.35999 7.81996 6.35999C9.64996 6.35999 11.48 6.35999 13.3 6.35999C13.35 6.35999 13.4 6.35999 13.47 6.34999H13.5ZM16.38 17.61C16.38 17.51 16.38 17.43 16.38 17.36C16.38 16.89 16.38 16.41 16.38 15.94C16.38 13.49 16.38 11.04 16.38 8.58999C16.38 7.58999 15.74 6.95999 14.74 6.95999C12.52 6.95999 10.29 6.95999 8.06996 6.95999C6.32996 6.95999 4.58996 6.95999 2.84996 6.95999C1.96996 6.95999 1.29996 7.60999 1.29996 8.47999C1.29996 12.47 1.29996 16.45 1.29996 20.44C1.29996 21.29 1.95996 21.95 2.81996 21.96C3.51996 21.96 4.20996 21.96 4.90996 21.96C6.63996 21.96 8.37996 21.96 10.11 21.96C10.42 21.96 10.73 21.96 11.07 21.96C10.96 21.54 10.86 21.16 10.75 20.78C10.44 19.63 10.13 18.48 9.81996 17.32C9.71996 16.93 9.71996 16.56 10.08 16.28C10.35 16.07 10.66 16.07 10.98 16.16C11.82 16.38 12.67 16.61 13.51 16.83C14.45 17.08 15.4 17.33 16.39 17.6L16.38 17.61ZM20.24 28.56C20.47 28.56 20.67 28.47 20.83 28.31C21.22 27.93 21.61 27.55 21.99 27.16C22.39 26.76 22.39 26.34 21.99 25.93C20.75 24.69 19.51 23.46 18.26 22.22C18.03 21.99 18.03 21.86 18.26 21.63C18.42 21.47 18.58 21.31 18.74 21.15C19.21 20.69 19.67 20.23 20.14 19.76C20.42 19.48 20.38 19.32 19.99 19.2C19.97 19.2 19.94 19.19 19.92 19.18C19.47 19.06 19.02 18.94 18.58 18.82C16.03 18.14 13.47 17.46 10.92 16.78C10.43 16.65 10.33 16.76 10.46 17.26C10.91 18.94 11.36 20.61 11.82 22.29C12.18 23.62 12.54 24.96 12.9 26.29C13 26.65 13.17 26.69 13.44 26.43C13.46 26.41 13.48 26.39 13.49 26.38C14.11 25.77 14.72 25.15 15.34 24.54C15.53 24.35 15.69 24.35 15.89 24.54C15.94 24.58 15.98 24.63 16.02 24.67C17.25 25.89 18.47 27.11 19.7 28.33C19.85 28.48 20.04 28.56 20.26 28.57L20.24 28.56Z" fill="#008000"/>
<path d="M9.96952 24.63C9.88952 24.74 9.83952 24.84 9.76952 24.92C9.01952 25.67 8.26952 26.41 7.51952 27.16C6.85952 27.82 6.19952 28.47 5.53952 29.13C5.50952 29.16 5.48952 29.19 5.45952 29.21C5.30952 29.35 5.12952 29.35 5.00952 29.23C4.88952 29.11 4.88952 28.92 5.02952 28.78C5.22952 28.57 5.43952 28.36 5.64952 28.16C6.85952 26.95 8.07952 25.74 9.29952 24.54C9.34952 24.49 9.39952 24.41 9.46952 24.4C9.56952 24.37 9.69952 24.35 9.78952 24.4C9.86952 24.44 9.90952 24.55 9.98952 24.65L9.96952 24.63Z" fill="#008000"/>
<path d="M21.7595 9.27996C21.9895 9.03996 22.2195 8.80996 22.4595 8.56996C22.5695 8.45996 22.6995 8.42996 22.8395 8.49996C22.9795 8.56996 23.0195 8.68996 22.9895 8.82996C22.9795 8.88996 22.9295 8.95996 22.8895 8.99996C22.4795 9.40996 22.0795 9.80996 21.6595 10.22C21.4895 10.39 21.3295 10.39 21.1495 10.22C20.7695 9.84996 20.3895 9.46996 20.0195 9.09996C19.9795 9.05996 19.9495 9.01996 19.9295 8.97996C19.7995 8.79996 19.7995 8.67996 19.9295 8.56996C20.0895 8.43996 20.2195 8.43996 20.3795 8.58996C20.5895 8.78996 20.7895 8.99996 20.9895 9.19996C21.0195 9.21996 21.0395 9.24996 21.0895 9.28996C21.0895 9.19996 21.0895 9.12996 21.0895 9.06996C21.0895 8.44996 21.0895 7.82996 21.0895 7.21996C21.0895 6.95996 21.1895 6.82996 21.3895 6.82996C21.5895 6.82996 21.6995 6.96996 21.6995 7.22996C21.6995 7.84996 21.6995 8.46996 21.6995 9.07996C21.6995 9.13996 21.6995 9.19996 21.6995 9.25996C21.7195 9.25996 21.7295 9.27996 21.7495 9.28996L21.7595 9.27996Z" fill="#008000"/>
<path d="M19.1997 16.44C18.8197 16.44 18.4497 16.44 18.0697 16.44C17.8197 16.44 17.6797 16.32 17.6797 16.13C17.6797 15.95 17.8297 15.83 18.0597 15.83C18.8097 15.83 19.5697 15.83 20.3197 15.83C20.5597 15.83 20.6897 15.94 20.6897 16.13C20.6897 16.32 20.5597 16.44 20.3197 16.44C19.9397 16.44 19.5697 16.44 19.1897 16.44H19.1997Z" fill="#008000"/>
<path d="M18.8098 1.31997C18.4198 1.31997 18.0298 1.31997 17.6398 1.31997C17.4298 1.31997 17.2998 1.19997 17.2998 1.02997C17.2998 0.839971 17.4198 0.719971 17.6298 0.719971C18.4098 0.719971 19.1998 0.719971 19.9798 0.719971C20.1898 0.719971 20.3098 0.849971 20.3098 1.02997C20.3098 1.21997 20.1898 1.31997 19.9798 1.32997C19.5898 1.32997 19.1998 1.32997 18.8098 1.32997V1.31997Z" fill="#008000"/>
<path d="M24.0095 15.83C24.3895 15.83 24.7595 15.83 25.1395 15.83C25.3695 15.83 25.5095 15.95 25.5095 16.13C25.5095 16.32 25.3695 16.44 25.1395 16.44C24.3795 16.44 23.6195 16.44 22.8595 16.44C22.6295 16.44 22.4895 16.32 22.4995 16.13C22.4995 15.95 22.6295 15.84 22.8595 15.83C23.2395 15.83 23.6295 15.83 24.0095 15.83V15.83Z" fill="#008000"/>
<path d="M23.6196 1.32997C23.2396 1.32997 22.8496 1.32997 22.4696 1.32997C22.2396 1.32997 22.0996 1.20997 22.0996 1.01997C22.0996 0.829971 22.2396 0.719971 22.4796 0.719971C23.2296 0.719971 23.9896 0.719971 24.7396 0.719971C24.9696 0.719971 25.1196 0.829971 25.1196 1.01997C25.1196 1.20997 24.9796 1.32997 24.7296 1.32997C24.3596 1.32997 23.9896 1.32997 23.6196 1.32997Z" fill="#008000"/>
<path d="M28.7004 5.97998C28.7004 5.60998 28.7004 5.23998 28.7004 4.86998C28.7004 4.60998 28.8104 4.47998 29.0004 4.47998C29.1904 4.47998 29.3104 4.61998 29.3104 4.86998C29.3104 5.61998 29.3104 6.36998 29.3104 7.11998C29.3104 7.33998 29.1904 7.47998 29.0104 7.47998C28.8104 7.47998 28.6904 7.33998 28.6904 7.09998C28.6904 6.72998 28.6904 6.34998 28.6904 5.97998H28.7004Z" fill="#008000"/>
<path d="M29.3104 10.76C29.3104 11.13 29.3104 11.51 29.3104 11.88C29.3104 12.13 29.1904 12.26 28.9904 12.26C28.8104 12.26 28.7004 12.11 28.6904 11.88C28.6904 11.2 28.6904 10.52 28.6904 9.83996C28.6904 9.70996 28.6904 9.56996 28.7304 9.45996C28.7804 9.33996 28.8904 9.22996 29.0604 9.26996C29.2304 9.30996 29.3104 9.42996 29.3104 9.59996C29.3104 9.98996 29.3104 10.37 29.3104 10.76V10.76Z" fill="#008000"/>
<path d="M29.3104 14.43C29.2804 15.34 28.6304 16.15 27.7604 16.37C27.6204 16.41 27.4804 16.4 27.3804 16.29C27.2204 16.11 27.3204 15.86 27.5904 15.78C28.0604 15.65 28.4004 15.37 28.5904 14.92C28.6604 14.76 28.6804 14.57 28.7004 14.39C28.7304 14.18 28.8504 14.05 29.0304 14.06C29.2104 14.07 29.3204 14.21 29.3204 14.43H29.3104Z" fill="#008000"/>
<path d="M27.2597 0.679932C28.1897 0.729932 29.0397 1.40993 29.2397 2.25993C29.2897 2.47993 29.2197 2.63993 29.0497 2.68993C28.8597 2.73993 28.7197 2.64993 28.6497 2.41993C28.4497 1.76993 27.9697 1.37993 27.2797 1.32993C26.9897 1.30993 26.8197 1.06993 26.9697 0.869932C27.0297 0.779932 27.1597 0.739932 27.2597 0.679932V0.679932Z" fill="#008000"/>
<path d="M13.5002 2.70989C13.5202 1.82989 14.1902 0.989887 15.0402 0.779887C15.3102 0.709887 15.5102 0.849887 15.4902 1.08989C15.4702 1.24989 15.3702 1.32989 15.2302 1.36989C14.5402 1.56989 14.1702 2.02989 14.1102 2.74989C14.0902 2.96989 13.9702 3.09989 13.7902 3.08989C13.6002 3.08989 13.4902 2.93989 13.4902 2.70989H13.5002Z" fill="#008000"/>
<path d="M7.22971 24.8299C7.16971 24.9399 7.13971 25.0199 7.07971 25.0799C6.68971 25.4699 6.29971 25.8599 5.90971 26.2499C5.75971 26.3899 5.58971 26.3999 5.45971 26.2699C5.33971 26.1499 5.33971 25.9599 5.47971 25.8199C5.86971 25.4299 6.26971 25.0299 6.65971 24.6399C6.75971 24.5399 6.87971 24.4999 6.99971 24.5799C7.08971 24.6399 7.14971 24.7399 7.22971 24.8299V24.8299Z" fill="#008000"/>
</g>
</g>
<defs>
<clipPath id="clip0_103_9">
<rect width="30" height="30" fill="white"/>
</clipPath>
<clipPath id="clip1_103_9">
<rect width="28.64" height="28.64" fill="white" transform="translate(0.679688 0.679932)"/>
</clipPath>
</defs>
</svg>
