<?xml version="1.0" encoding="utf-8"?>
<!-- Generator: Adobe Illustrator 26.2.1, SVG Export Plug-In . SVG Version: 6.00 Build 0)  -->
<svg version="1.1" id="Layer_1" xmlns="http://www.w3.org/2000/svg" xmlns:xlink="http://www.w3.org/1999/xlink" x="0px" y="0px"
	 viewBox="0 0 100 100" style="enable-background:new 0 0 100 100;" xml:space="preserve">
<style type="text/css">
	.st0{fill:#CE2121;}
</style>
<g>
	<path class="st0" d="M0,100c0-0.2,0-0.4,0-0.7c0-3.3,0-6.6,0-9.8c0-0.4,0.1-0.7,0.4-1c13.9-13.9,27.9-27.9,41.8-41.8
		c0.4-0.4,0.5-0.7,0.2-1.2c-2.3-4.9-3.7-10-3.5-15.5c0.2-8.2,3.3-15.2,9.1-21c5-5,11-7.9,18-8.7c8.6-1,16.2,1.4,22.8,6.9
		c6,5,9.7,11.4,10.8,19.2c1.3,9-1.2,17-7,24c-4.8,5.8-11.1,9.2-18.5,10.5c-3.8,0.7-7.6,0.4-11.3-0.6c-0.4-0.1-0.7,0-1,0.3
		c-5.6,5.7-11.3,11.3-16.9,16.9c-0.3,0.3-0.6,0.4-1,0.4c-3.3,0-6.6,0-9.9,0c-0.2,0-0.4,0-0.6,0c0,3.7,0,7.4,0,11.1
		c-3.7,0-7.4,0-11.1,0c0,3.7,0,7.4,0,11.1C14.9,100,7.5,100,0,100z M77.8,11.1c-4.6,0-8.3,3.7-8.4,8.2c0,4.5,3.8,8.4,8.3,8.4
		c4.5,0,8.4-3.9,8.4-8.4C86.2,14.9,82.4,11.1,77.8,11.1z"/>
</g>
</svg>
