<svg width="22" height="22" viewBox="0 0 22 22" fill="none" xmlns="http://www.w3.org/2000/svg">
<g clip-path="url(#clip0_844_251)">
<g clip-path="url(#clip1_844_251)">
<path d="M15.3724 0.5C15.8036 0.716662 15.9658 0.975362 15.8795 1.30197C15.7899 1.64798 15.5173 1.80967 15.024 1.80967C11.2842 1.80967 7.54441 1.80967 3.80463 1.80967C2.62129 1.80967 1.90025 2.48552 1.90025 3.59794C1.90025 7.21974 1.90025 10.8383 1.90025 14.4601C1.90025 15.5661 2.62474 16.2387 3.81153 16.2387C4.09443 16.2387 4.38423 16.2257 4.66023 16.271C5.50202 16.4068 6.08852 17.0698 6.09542 17.8717C6.09887 18.3924 6.10232 18.9098 6.09542 19.4304C6.09197 19.7311 6.19547 19.9672 6.49216 20.1063C6.77851 20.2388 7.03726 20.1742 7.28566 19.9995C8.7243 18.9841 10.1698 17.9784 11.6016 16.9598C12.2916 16.4715 13.054 16.2322 13.9165 16.2387C15.3448 16.2484 16.7731 16.2387 18.2014 16.2387C19.3675 16.2387 20.092 15.5564 20.092 14.4569C20.092 10.9256 20.092 7.39113 20.092 3.85987C20.092 3.54943 20.2024 3.31013 20.5094 3.17755C20.9821 2.97382 21.4927 3.2972 21.4927 3.80166C21.4961 4.87527 21.4927 5.94564 21.4927 7.01925C21.4927 9.61595 21.4927 12.2127 21.4927 14.8061C21.4927 16.423 20.2921 17.5484 18.5636 17.5484C17.0042 17.5484 15.4449 17.5516 13.882 17.5484C13.3507 17.5484 12.885 17.6939 12.4606 17.9946C11.0185 19.0165 9.56954 20.0286 8.124 21.044C7.41331 21.5453 6.64051 21.6488 5.84702 21.2704C5.06042 20.8953 4.68783 20.2615 4.69473 19.4369C4.69473 19.0391 4.69473 18.6446 4.69473 18.2468C4.69128 17.8265 4.40148 17.5678 3.95298 17.5516C3.51829 17.5354 3.06979 17.5516 2.64889 17.4707C1.39655 17.2185 0.506457 16.1643 0.503007 14.9581C0.499557 11.0032 0.496107 7.04512 0.503007 3.09024C0.506457 1.83231 1.4897 0.755467 2.80759 0.538805C2.85589 0.532338 2.90419 0.512935 2.95249 0.5H15.3724Z" fill="#1E6AEE"/>
<path d="M18.1741 0.5C18.2224 0.52587 18.2742 0.55174 18.3225 0.57761C18.6054 0.719895 18.7537 1.0174 18.6813 1.29874C18.6019 1.60594 18.319 1.81614 17.9878 1.8129C17.667 1.80967 17.391 1.59948 17.3151 1.29874C17.2427 1.0174 17.391 0.719895 17.6739 0.57761C17.7222 0.55174 17.774 0.52587 17.8223 0.503234H18.1707L18.1741 0.5Z" fill="#1E6AEE"/>
<path d="M10.9982 4.42578C12.6059 4.43548 14.0101 5.46382 14.3999 6.93194C14.7863 8.39036 14.0515 9.9167 12.6232 10.6184C12.5128 10.6734 12.3989 10.7154 12.2885 10.7704C11.9228 10.9515 11.7262 11.2328 11.702 11.6209C11.6779 12.038 11.3812 12.3226 10.9741 12.3064C10.5704 12.2935 10.2806 11.9895 10.3048 11.5691C10.3634 10.6184 10.8671 9.9361 11.7883 9.53835C12.2782 9.32815 12.6646 9.02095 12.8888 8.56175C13.2476 7.82446 13.1717 7.11303 12.6301 6.48568C12.0712 5.83893 11.326 5.60287 10.46 5.82276C9.61825 6.03619 9.11111 6.56976 8.93861 7.37496C8.91446 7.49461 8.90756 7.6175 8.90066 7.74038C8.87306 8.10903 8.56256 8.38066 8.17961 8.37096C7.80702 8.36126 7.51377 8.07992 7.49997 7.72421C7.44822 6.16877 8.80406 4.67801 10.4531 4.47752C10.6325 4.45488 10.8154 4.44195 10.9948 4.42578H10.9982Z" fill="#1E6AEE"/>
<path d="M11.6985 14.2726C11.6985 14.638 11.3777 14.9323 10.9878 14.929C10.6083 14.9226 10.2979 14.6315 10.2979 14.2726C10.2979 13.9072 10.6187 13.6129 11.0085 13.6161C11.388 13.6193 11.6985 13.9136 11.6985 14.2726Z" fill="#1E6AEE"/>
</g>
</g>
<defs>
<clipPath id="clip0_844_251">
<rect width="22" height="22" fill="white"/>
</clipPath>
<clipPath id="clip1_844_251">
<rect width="21" height="21" fill="white" transform="translate(0.5 0.5)"/>
</clipPath>
</defs>
</svg>
