<?xml version="1.0" encoding="UTF-8"?><svg id="Layer_2" xmlns="http://www.w3.org/2000/svg" xmlns:xlink="http://www.w3.org/1999/xlink" viewBox="0 0 578.64 187.29"><defs><style>.cls-1{clip-path:url(#clippath-20);}.cls-2{clip-path:url(#clippath-11);}.cls-3{clip-path:url(#clippath-16);}.cls-4{fill:#8092ff;}.cls-5{fill:#1d1d41;}.cls-6{fill:#ff9c84;}.cls-7{clip-path:url(#clippath-2);}.cls-8{clip-path:url(#clippath-13);}.cls-9{fill:#0423dd;}.cls-10{fill:#8092a1;}.cls-11{clip-path:url(#clippath-15);}.cls-12{clip-path:url(#clippath-6);}.cls-13{fill:#f95932;}.cls-14{fill:#6bb86e;}.cls-15{clip-path:url(#clippath-7);}.cls-16{clip-path:url(#clippath-21);}.cls-17{clip-path:url(#clippath-1);}.cls-18{clip-path:url(#clippath-4);}.cls-19{clip-path:url(#clippath-12);}.cls-20{clip-path:url(#clippath-22);}.cls-21{clip-path:url(#clippath-9);}.cls-22{clip-path:url(#clippath);}.cls-23{fill:none;}.cls-24{clip-path:url(#clippath-19);}.cls-25{clip-path:url(#clippath-3);}.cls-26{clip-path:url(#clippath-8);}.cls-27{clip-path:url(#clippath-18);}.cls-28{clip-path:url(#clippath-14);}.cls-29{clip-path:url(#clippath-17);}.cls-30{clip-path:url(#clippath-5);}.cls-31{clip-path:url(#clippath-10);}.cls-32{clip-path:url(#clippath-23);}.cls-33{fill:#8a9aff;}</style><clipPath id="clippath"><circle class="cls-23" cx="68.67" cy="18.73" r="18.73"/></clipPath><clipPath id="clippath-1"><rect class="cls-23" x="-1034.77" y="-744.47" width="3371.2" height="2341.11"/></clipPath><clipPath id="clippath-2"><circle class="cls-23" cx="118.62" cy="18.73" r="18.73"/></clipPath><clipPath id="clippath-3"><rect class="cls-23" x="-1034.77" y="-744.47" width="3371.2" height="2341.11"/></clipPath><clipPath id="clippath-4"><circle class="cls-23" cx="68.67" cy="68.67" r="18.73"/></clipPath><clipPath id="clippath-5"><rect class="cls-23" x="-1034.77" y="-744.47" width="3371.2" height="2341.11"/></clipPath><clipPath id="clippath-6"><circle class="cls-23" cx="118.62" cy="68.67" r="18.73"/></clipPath><clipPath id="clippath-7"><rect class="cls-23" x="-1034.77" y="-744.47" width="3371.2" height="2341.11"/></clipPath><clipPath id="clippath-8"><circle class="cls-23" cx="68.67" cy="118.62" r="18.73"/></clipPath><clipPath id="clippath-9"><rect class="cls-23" x="-1034.77" y="-744.47" width="3371.2" height="2341.11"/></clipPath><clipPath id="clippath-10"><circle class="cls-23" cx="18.73" cy="68.67" r="18.73"/></clipPath><clipPath id="clippath-11"><rect class="cls-23" x="-1034.77" y="-744.47" width="3371.2" height="2341.11"/></clipPath><clipPath id="clippath-12"><circle class="cls-23" cx="18.73" cy="118.62" r="18.73"/></clipPath><clipPath id="clippath-13"><rect class="cls-23" x="-1034.77" y="-744.47" width="3371.2" height="2341.11"/></clipPath><clipPath id="clippath-14"><circle class="cls-23" cx="118.62" cy="118.62" r="18.73"/></clipPath><clipPath id="clippath-15"><rect class="cls-23" x="-1034.77" y="-744.47" width="3371.2" height="2341.11"/></clipPath><clipPath id="clippath-16"><circle class="cls-23" cx="168.56" cy="68.67" r="18.73"/></clipPath><clipPath id="clippath-17"><rect class="cls-23" x="-1034.77" y="-744.47" width="3371.2" height="2341.11"/></clipPath><clipPath id="clippath-18"><circle class="cls-23" cx="168.56" cy="118.62" r="18.73"/></clipPath><clipPath id="clippath-19"><rect class="cls-23" x="-1034.77" y="-744.47" width="3371.2" height="2341.11"/></clipPath><clipPath id="clippath-20"><circle class="cls-23" cx="68.67" cy="168.56" r="18.73"/></clipPath><clipPath id="clippath-21"><rect class="cls-23" x="-1034.77" y="-744.47" width="3371.2" height="2341.11"/></clipPath><clipPath id="clippath-22"><circle class="cls-23" cx="118.62" cy="168.56" r="18.73"/></clipPath><clipPath id="clippath-23"><rect class="cls-23" x="-1034.77" y="-744.47" width="3371.2" height="2341.11"/></clipPath></defs><g id="Layer_1-2"><g><g><g><path class="cls-5" d="M296.55,10.46v28.78h-16.62l-.89-12.09h-19.88V103.26l11.57,2.23v12.98h-44.8v-12.98l11.57-2.23V27.15h-19.8l-.89,12.09h-16.54V10.46h96.28Z"/><path class="cls-5" d="M338.13,120.02c-11.57,0-20.82-3.71-27.74-11.13-6.92-7.42-10.38-16.84-10.38-28.26v-2.97c0-11.92,3.28-21.73,9.83-29.45,6.55-7.71,15.34-11.55,26.37-11.5,10.83,0,19.24,3.26,25.22,9.79s8.98,15.35,8.98,26.48v11.79h-47.92l-.15,.45c.39,5.29,2.16,9.64,5.3,13.05s7.41,5.12,12.8,5.12c4.8,0,8.78-.48,11.94-1.45,3.16-.96,6.63-2.49,10.38-4.56l5.86,13.35c-3.31,2.62-7.6,4.82-12.87,6.6-5.27,1.78-11.14,2.67-17.62,2.67Zm-1.93-66.61c-4,0-7.17,1.53-9.49,4.6-2.33,3.07-3.76,7.1-4.3,12.09l.22,.37h26.56v-1.93c0-4.6-1.08-8.27-3.23-11.01-2.15-2.75-5.4-4.12-9.75-4.12Z"/><path class="cls-5" d="M408.2,18.55v19.66h14.09v15.21h-14.09v40.87c0,3.12,.64,5.34,1.93,6.68,1.29,1.34,3.02,2,5.19,2,1.48,0,2.78-.06,3.89-.19,1.11-.12,2.36-.33,3.75-.63l1.85,15.65c-2.42,.74-4.82,1.3-7.2,1.67-2.37,.37-4.95,.56-7.71,.56-7.47,0-13.22-2.05-17.25-6.16s-6.04-10.61-6.04-19.51V53.41h-11.79v-15.21h11.79V18.55h21.58Z"/><path class="cls-5" d="M427.31,105.48l10.46-2.23V18.03l-11.57-2.22V2.75h33.16V48.44c2.52-3.71,5.61-6.59,9.27-8.64,3.66-2.05,7.71-3.08,12.17-3.08,8.41,0,15,2.78,19.77,8.34,4.77,5.56,7.16,14.16,7.16,25.78v32.41l10.38,2.23v12.98h-41.39v-12.98l9.35-2.23v-32.56c0-6.23-1.1-10.64-3.3-13.24-2.2-2.6-5.48-3.89-9.83-3.89-3.02,0-5.65,.54-7.9,1.63-2.25,1.09-4.14,2.62-5.67,4.6v43.47l9.35,2.23v12.98h-41.39v-12.98Z"/><path class="cls-5" d="M522.29,105.48l10.38-2.23V53.48l-11.5-2.23v-13.05h31.67l.96,11.72c1.88-4.15,4.3-7.39,7.27-9.72,2.97-2.32,6.4-3.49,10.31-3.49,1.14,0,2.34,.09,3.6,.26,1.26,.17,2.31,.38,3.15,.63l-2.3,19.73-8.9-.22c-3.17,0-5.79,.62-7.86,1.85s-3.66,2.99-4.75,5.27v39.02l10.38,2.23v12.98h-42.43v-12.98Z"/></g><g><g><path class="cls-14" d="M420.24,153.88v-27.24h4.88v10.63h13.09v-10.63h4.85v27.24h-4.85v-12.19h-13.09v12.19h-4.88Z"/><path class="cls-14" d="M450.37,153.88v-27.24h17.35v4.42h-12.46v6.48h11.68v4.42h-11.68v7.51h12.74v4.42h-17.62Z"/><path class="cls-14" d="M473.27,153.88l11.37-27.24h4.14l11.37,27.24h-5.16l-2.23-5.43h-12.11l-2.23,5.43h-5.16Zm8.91-9.46h9.07l-4.53-11.1-4.53,11.1Z"/><path class="cls-14" d="M506.39,153.88v-27.24h4.88v22.82h10.82v4.42h-15.71Z"/><path class="cls-14" d="M537.26,153.88v-22.82h-7.38v-4.42h19.65v4.42h-7.39v22.82h-4.88Z"/><path class="cls-14" d="M555.82,153.88v-27.24h4.88v10.63h13.09v-10.63h4.84v27.24h-4.84v-12.19h-13.09v12.19h-4.88Z"/></g><g><g><path class="cls-10" d="M268.51,126.87h4.79v27.25h-4.79v-27.25Z"/><path class="cls-10" d="M280.58,126.87h12.15c3.43,0,6.11,1.01,7.86,2.73,1.44,1.48,2.26,3.5,2.26,5.88v.08c0,4.48-2.69,7.16-6.5,8.25l7.36,10.32h-5.65l-6.7-9.5h-6v9.5h-4.79v-27.25Zm11.8,13.51c3.43,0,5.61-1.79,5.61-4.56v-.08c0-2.92-2.1-4.52-5.65-4.52h-6.97v9.15h7.01Z"/><path class="cls-10" d="M315.31,131.31h-8.65v-4.44h22.12v4.44h-8.64v22.81h-4.83v-22.81Z"/><path class="cls-10" d="M359.81,126.87h12.15c3.43,0,6.11,1.01,7.87,2.73,1.44,1.48,2.26,3.5,2.26,5.88v.08c0,4.48-2.69,7.16-6.5,8.25l7.36,10.32h-5.65l-6.7-9.5h-5.99v9.5h-4.79v-27.25Zm11.8,13.51c3.43,0,5.61-1.79,5.61-4.56v-.08c0-2.92-2.1-4.52-5.65-4.52h-6.97v9.15h7.01Z"/><path class="cls-10" d="M387.96,126.87h20.21v4.28h-15.42v7.09h13.67v4.28h-13.67v7.32h15.61v4.28h-20.4v-27.25Z"/><polygon class="cls-10" points="343.15 126.67 338.71 126.67 338.71 126.69 350.08 154.12 355.14 154.12 343.15 126.67"/><polygon class="cls-10" points="247.73 154.12 252.17 154.12 252.18 154.11 240.8 126.67 235.74 126.67 247.73 154.12"/></g><polygon class="cls-14" points="327.26 154.12 332.17 154.12 341.25 132.74 336.6 132.74 327.26 154.12"/><polygon class="cls-14" points="263.63 126.67 258.72 126.67 249.64 148.06 254.28 148.06 263.63 126.67"/></g><path class="cls-5" d="M212.28,126.54h5.18l10.37,27.37h-4.76l-2.72-7.05h-11.01l-2.72,7.05h-4.8l10.45-27.37Zm7.31,16.74l-4.76-12.54-4.76,12.54h9.52Z"/><g><path class="cls-5" d="M201.56,159.48h12.2c3.03,0,5.32,.84,6.86,2.51,1.54,1.67,2.32,3.88,2.32,6.63s-.84,4.9-2.53,6.54c-1.69,1.64-3.96,2.46-6.82,2.46h-7.39v9.22h-4.63v-27.37Zm11.18,14.49c1.78,0,3.16-.47,4.12-1.42,.96-.95,1.44-2.26,1.44-3.93,0-1.76-.45-3.12-1.36-4.08-.91-.96-2.24-1.45-4-1.45h-6.76v10.88h6.54Z"/><path class="cls-5" d="M226.63,159.48h12.58c2.97,0,5.18,.76,6.63,2.29,1.45,1.53,2.17,3.68,2.17,6.46,0,1.95-.49,3.61-1.47,4.95-.98,1.35-2.36,2.29-4.14,2.83,.48,.34,.86,.72,1.15,1.13,.28,.41,.58,1,.89,1.76l3.44,7.95h-4.76l-3.36-7.65c-.34-.76-.74-1.3-1.19-1.59-.45-.3-1.18-.45-2.17-.45h-5.14v9.69h-4.63v-27.37Zm11.35,13.94c3.6,0,5.4-1.73,5.4-5.18s-1.66-5.14-4.97-5.14h-7.14v10.33h6.71Z"/><path class="cls-5" d="M254.28,183.85c-2.14-2.28-3.21-5.81-3.21-10.6s1.06-8.53,3.19-10.79c2.12-2.27,5.38-3.4,9.77-3.4s7.65,1.13,9.77,3.4c2.12,2.27,3.19,5.87,3.19,10.79s-1.07,8.32-3.21,10.6c-2.14,2.28-5.39,3.42-9.75,3.42s-7.61-1.14-9.75-3.42Zm16.08-2.87c1.33-1.59,2-4.17,2-7.73s-.66-6.35-1.98-7.91c-1.32-1.56-3.44-2.34-6.35-2.34s-4.99,.78-6.31,2.34c-1.32,1.56-1.98,4.19-1.98,7.91s.67,6.11,2,7.71,3.43,2.4,6.29,2.4,5-.79,6.33-2.38Z"/><path class="cls-5" d="M281.54,159.48h11.09c4.11,0,7.12,1.09,9.05,3.27,1.93,2.18,2.89,5.71,2.89,10.58s-.96,8.1-2.89,10.26c-1.93,2.17-4.94,3.25-9.05,3.25h-11.09v-27.37Zm10.37,23.8c1.9,0,3.42-.28,4.57-.83s2.01-1.55,2.59-3,.87-3.48,.87-6.12-.27-4.73-.81-6.21c-.54-1.47-1.38-2.51-2.53-3.12s-2.71-.91-4.7-.91h-5.74v20.19h5.74Z"/><path class="cls-5" d="M312.01,184.56c-2.07-1.81-3.1-4.43-3.1-7.86v-17.21h4.63v17.04c0,2.27,.62,3.97,1.87,5.12,1.25,1.15,3.04,1.72,5.4,1.72s4.11-.57,5.35-1.72c1.25-1.15,1.87-2.85,1.87-5.12v-17.04h4.59v17.21c0,3.43-1.03,6.05-3.08,7.86-2.05,1.81-4.96,2.72-8.73,2.72s-6.73-.91-8.8-2.72Z"/><path class="cls-5" d="M340.44,183.64c-2.35-2.42-3.53-5.77-3.53-10.05,0-4.62,1.13-8.2,3.4-10.73,2.27-2.54,5.68-3.8,10.24-3.8,2.86,0,5.54,.44,8.03,1.32v4.04c-2.41-.93-4.97-1.4-7.69-1.4-3.31,0-5.69,.88-7.14,2.63-1.44,1.76-2.17,4.41-2.17,7.95,0,3.23,.77,5.67,2.32,7.31,1.54,1.64,3.9,2.46,7.08,2.46,2.8,0,5.35-.44,7.65-1.32v4.08c-2.44,.77-5.11,1.15-8.03,1.15-4.42,0-7.81-1.21-10.16-3.63Z"/><path class="cls-5" d="M369.17,163.09h-8.75v-3.61h22.1v3.61h-8.71v23.76h-4.63v-23.76Z"/></g></g></g><g><g class="cls-22"><g class="cls-17"><rect class="cls-6" x="38.24" y="-11.71" width="60.87" height="60.87"/></g></g><g class="cls-7"><g class="cls-25"><rect class="cls-13" x="88.18" y="-11.71" width="60.87" height="60.87"/></g></g><g class="cls-18"><g class="cls-30"><rect class="cls-9" x="38.24" y="38.24" width="60.87" height="60.87"/></g></g><g class="cls-12"><g class="cls-15"><rect class="cls-13" x="88.18" y="38.24" width="60.87" height="60.87"/></g></g><g class="cls-26"><g class="cls-21"><rect class="cls-13" x="38.24" y="88.18" width="60.87" height="60.87"/></g></g><g class="cls-31"><g class="cls-2"><rect class="cls-13" x="-11.71" y="38.24" width="60.87" height="60.87"/></g></g><g class="cls-19"><g class="cls-8"><rect class="cls-33" x="-11.71" y="88.18" width="60.87" height="60.87"/></g></g><g class="cls-28"><g class="cls-11"><rect class="cls-6" x="88.18" y="88.18" width="60.87" height="60.87"/></g></g><g class="cls-3"><g class="cls-29"><rect class="cls-4" x="138.13" y="38.24" width="60.87" height="60.87"/></g></g><g class="cls-27"><g class="cls-24"><rect class="cls-13" x="138.13" y="88.18" width="60.87" height="60.87"/></g></g><g class="cls-1"><g class="cls-16"><rect class="cls-6" x="38.24" y="138.13" width="60.87" height="60.87"/></g></g><g class="cls-20"><g class="cls-32"><rect class="cls-9" x="88.18" y="138.13" width="60.87" height="60.87"/></g></g></g></g></g></svg>